<?xml version="1.0" encoding="UTF-8"?>
<svg id="Layer_1" data-name="Layer 1" xmlns="http://www.w3.org/2000/svg" xmlns:xlink="http://www.w3.org/1999/xlink" viewBox="0 0 1024 1024">
  <defs>
    <style>
      .cls-1 {
        fill: url(#linear-gradient-2);
      }

      .cls-2 {
        fill: none;
      }

      .cls-3 {
        fill: url(#linear-gradient-3);
      }

      .cls-4 {
        fill: url(#linear-gradient);
      }
    </style>
    <linearGradient id="linear-gradient" x1="516.88" y1="815" x2="519.53" y2="264.64" gradientUnits="userSpaceOnUse">
      <stop offset="0" stop-color="#312978"/>
      <stop offset="1" stop-color="#5ccae9"/>
    </linearGradient>
    <linearGradient id="linear-gradient-2" x1="517.41" y1="815" x2="520.06" y2="264.64" xlink:href="#linear-gradient"/>
    <linearGradient id="linear-gradient-3" x1="509.52" y1="814.96" x2="512.16" y2="264.6" xlink:href="#linear-gradient"/>
  </defs>
  <polygon class="cls-2" points="1024 0 0 0 0 1024 1024 1024 1024 1024 1024 0"/>
  <g>
    <path class="cls-4" d="M700.6,540.24c0,25.39-5.27,49.61-14.72,71.61-10.07-11.33-21.3-21.71-33.61-30.93-2.33-1.74-4.79-3.26-7.16-4.92,3.2-11.38,5.02-23.35,5.02-35.76,0-57.1-36.45-105.8-87.28-124.13-13.93-5.04-28.96-7.78-44.63-7.78-16.96,0-33.19,3.2-48.09,9.07-49.05,19.24-83.84,67.03-83.84,122.84,0,12.41,1.81,24.37,5.02,35.76-2.37,1.66-4.82,3.18-7.16,4.94-12.39,9.26-23.62,19.64-33.61,30.89-9.44-22-14.72-46.19-14.72-71.59,0-59.05,28.21-111.67,71.9-144.99,30.68-23.46,68.98-37.4,110.51-37.4,39.09,0,75.37,12.39,105.09,33.42,46.73,33.07,77.3,87.53,77.3,148.96Z"/>
    <path class="cls-1" d="M627.06,614.6c-15.01-11.23-31.82-20.19-49.91-26.38,10.68-13.1,17.09-29.8,17.09-47.98,0-41.95-34.13-76.08-76.08-76.08s-76.08,34.13-76.08,76.08c0,18.19,6.42,34.9,17.11,48-18.07,6.2-34.86,15.15-49.86,26.37-13.71,10.26-25.99,22.29-36.26,35.92,2.14,2.84,4.39,5.6,6.7,8.3l138.4,171.64,139.05-172.39c2.09-2.47,4.14-4.98,6.1-7.56-10.35-13.63-22.55-25.66-36.26-35.92ZM518.18,514.63c14.11,0,25.6,11.49,25.6,25.6s-11.49,25.6-25.6,25.6-25.6-11.49-25.6-25.6,11.49-25.6,25.6-25.6Z"/>
    <path class="cls-3" d="M519.41,193.52l-279.33,109.66,28.73,10.78v49.23c-7.84,4.42-13.15,12.82-13.15,22.47s5.3,18.04,13.15,22.47v.41l-21.46,58.27h68.22l-22.45-57.7v-.46c8.38-4.26,14.14-12.94,14.14-22.99s-5.76-18.73-14.14-22.99v-39.59l123.29,46.3c30.67-18.43,65.45-28.08,101.8-28.08,32.8,0,64.53,7.94,93.09,23.17l172.63-70.95-264.51-100.01Z"/>
  </g>
</svg>
